<mxfile host="app.diagrams.net" agent="Mozilla/5.0 (Windows NT 10.0; Win64; x64) AppleWebKit/537.36 (KHTML, like Gecko) Chrome/122.0.0.0 Safari/537.36" version="24.7.7">
  <diagram name="Página-1" id="D1V4fL8z4820-0BU6d7k">
    <mxGraphModel dx="1589" dy="836" grid="1" gridSize="10" guides="1" tooltips="1" connect="1" arrows="1" fold="1" page="1" pageScale="1" pageWidth="827" pageHeight="1169" math="0" shadow="0">
      <root>
        <mxCell id="0" />
        <mxCell id="1" parent="0" />
        <mxCell id="LMex-cNDRAr9as4ZC1uz-26" style="edgeStyle=orthogonalEdgeStyle;rounded=0;orthogonalLoop=1;jettySize=auto;html=1;entryX=0.5;entryY=0;entryDx=0;entryDy=0;dashed=1;" edge="1" parent="1" source="LMex-cNDRAr9as4ZC1uz-27" target="LMex-cNDRAr9as4ZC1uz-29">
          <mxGeometry relative="1" as="geometry">
            <mxPoint x="630" y="155" as="targetPoint" />
          </mxGeometry>
        </mxCell>
        <mxCell id="LMex-cNDRAr9as4ZC1uz-27" value="«View»&lt;br&gt;&lt;b&gt;TelaVisualizarDenuncia&lt;br&gt;&lt;/b&gt;" style="html=1;whiteSpace=wrap;" vertex="1" parent="1">
          <mxGeometry x="481.25" y="90" width="157.5" height="50" as="geometry" />
        </mxCell>
        <mxCell id="LMex-cNDRAr9as4ZC1uz-28" style="edgeStyle=orthogonalEdgeStyle;rounded=0;orthogonalLoop=1;jettySize=auto;html=1;dashed=1;entryX=0.5;entryY=0;entryDx=0;entryDy=0;" edge="1" parent="1" source="LMex-cNDRAr9as4ZC1uz-29" target="LMex-cNDRAr9as4ZC1uz-41">
          <mxGeometry relative="1" as="geometry">
            <mxPoint x="560" y="400" as="targetPoint" />
          </mxGeometry>
        </mxCell>
        <mxCell id="LMex-cNDRAr9as4ZC1uz-29" value="«Control»&#xa;ComentarioCtr" style="swimlane;fontStyle=0;align=center;verticalAlign=top;childLayout=stackLayout;horizontal=1;startSize=40;horizontalStack=0;resizeParent=1;resizeLast=0;collapsible=1;marginBottom=0;rounded=0;shadow=0;strokeWidth=1;" vertex="1" parent="1">
          <mxGeometry x="480" y="180" width="160" height="80" as="geometry">
            <mxRectangle x="340" y="380" width="170" height="26" as="alternateBounds" />
          </mxGeometry>
        </mxCell>
        <mxCell id="LMex-cNDRAr9as4ZC1uz-30" value="" style="line;html=1;strokeWidth=1;align=left;verticalAlign=middle;spacingTop=-1;spacingLeft=3;spacingRight=3;rotatable=0;labelPosition=right;points=[];portConstraint=eastwest;" vertex="1" parent="LMex-cNDRAr9as4ZC1uz-29">
          <mxGeometry y="40" width="160" height="10" as="geometry" />
        </mxCell>
        <mxCell id="LMex-cNDRAr9as4ZC1uz-31" value="+ criar():" style="text;align=left;verticalAlign=top;spacingLeft=4;spacingRight=4;overflow=hidden;rotatable=0;points=[[0,0.5],[1,0.5]];portConstraint=eastwest;" vertex="1" parent="LMex-cNDRAr9as4ZC1uz-29">
          <mxGeometry y="50" width="160" height="30" as="geometry" />
        </mxCell>
        <mxCell id="LMex-cNDRAr9as4ZC1uz-32" style="edgeStyle=orthogonalEdgeStyle;rounded=0;orthogonalLoop=1;jettySize=auto;html=1;entryX=0.5;entryY=0;entryDx=0;entryDy=0;dashed=1;exitX=0.5;exitY=1;exitDx=0;exitDy=0;" edge="1" parent="1" source="LMex-cNDRAr9as4ZC1uz-41" target="LMex-cNDRAr9as4ZC1uz-38">
          <mxGeometry relative="1" as="geometry">
            <mxPoint x="507" y="490" as="sourcePoint" />
          </mxGeometry>
        </mxCell>
        <mxCell id="LMex-cNDRAr9as4ZC1uz-33" value="0..n" style="text;html=1;align=center;verticalAlign=middle;whiteSpace=wrap;rounded=0;" vertex="1" parent="1">
          <mxGeometry x="435" y="360" width="60" height="30" as="geometry" />
        </mxCell>
        <mxCell id="LMex-cNDRAr9as4ZC1uz-34" value="1" style="text;html=1;align=center;verticalAlign=middle;whiteSpace=wrap;rounded=0;" vertex="1" parent="1">
          <mxGeometry x="380" y="360" width="60" height="30" as="geometry" />
        </mxCell>
        <mxCell id="LMex-cNDRAr9as4ZC1uz-35" value="«DAO»&#xa;UsuarioDAO&#xa;" style="swimlane;fontStyle=0;align=center;verticalAlign=top;childLayout=stackLayout;horizontal=1;startSize=35;horizontalStack=0;resizeParent=1;resizeLast=0;collapsible=1;marginBottom=0;rounded=0;shadow=0;strokeWidth=1;" vertex="1" parent="1">
          <mxGeometry x="205" y="630" width="160" height="70" as="geometry">
            <mxRectangle x="340" y="380" width="170" height="26" as="alternateBounds" />
          </mxGeometry>
        </mxCell>
        <mxCell id="LMex-cNDRAr9as4ZC1uz-36" value="" style="line;html=1;strokeWidth=1;align=left;verticalAlign=middle;spacingTop=-1;spacingLeft=3;spacingRight=3;rotatable=0;labelPosition=right;points=[];portConstraint=eastwest;" vertex="1" parent="LMex-cNDRAr9as4ZC1uz-35">
          <mxGeometry y="35" width="160" height="8" as="geometry" />
        </mxCell>
        <mxCell id="LMex-cNDRAr9as4ZC1uz-37" value="+ atualizarPontos():" style="text;align=left;verticalAlign=top;spacingLeft=4;spacingRight=4;overflow=hidden;rotatable=0;points=[[0,0.5],[1,0.5]];portConstraint=eastwest;" vertex="1" parent="LMex-cNDRAr9as4ZC1uz-35">
          <mxGeometry y="43" width="160" height="27" as="geometry" />
        </mxCell>
        <mxCell id="LMex-cNDRAr9as4ZC1uz-38" value="«DAO»&#xa;ComentarioDAO&#xa;" style="swimlane;fontStyle=0;align=center;verticalAlign=top;childLayout=stackLayout;horizontal=1;startSize=35;horizontalStack=0;resizeParent=1;resizeLast=0;collapsible=1;marginBottom=0;rounded=0;shadow=0;strokeWidth=1;" vertex="1" parent="1">
          <mxGeometry x="480" y="610" width="160" height="70" as="geometry">
            <mxRectangle x="340" y="380" width="170" height="26" as="alternateBounds" />
          </mxGeometry>
        </mxCell>
        <mxCell id="LMex-cNDRAr9as4ZC1uz-39" value="" style="line;html=1;strokeWidth=1;align=left;verticalAlign=middle;spacingTop=-1;spacingLeft=3;spacingRight=3;rotatable=0;labelPosition=right;points=[];portConstraint=eastwest;" vertex="1" parent="LMex-cNDRAr9as4ZC1uz-38">
          <mxGeometry y="35" width="160" height="8" as="geometry" />
        </mxCell>
        <mxCell id="LMex-cNDRAr9as4ZC1uz-40" value="+ criar():&#xa;" style="text;align=left;verticalAlign=top;spacingLeft=4;spacingRight=4;overflow=hidden;rotatable=0;points=[[0,0.5],[1,0.5]];portConstraint=eastwest;" vertex="1" parent="LMex-cNDRAr9as4ZC1uz-38">
          <mxGeometry y="43" width="160" height="27" as="geometry" />
        </mxCell>
        <mxCell id="LMex-cNDRAr9as4ZC1uz-41" value="Comentario" style="swimlane;fontStyle=1;align=center;verticalAlign=top;childLayout=stackLayout;horizontal=1;startSize=26;horizontalStack=0;resizeParent=1;resizeParentMax=0;resizeLast=0;collapsible=1;marginBottom=0;whiteSpace=wrap;html=1;" vertex="1" parent="1">
          <mxGeometry x="495" y="350" width="130" height="110" as="geometry" />
        </mxCell>
        <mxCell id="LMex-cNDRAr9as4ZC1uz-42" value="+ data: datetime&lt;br&gt;+ texto: string" style="text;strokeColor=none;fillColor=none;align=left;verticalAlign=top;spacingLeft=4;spacingRight=4;overflow=hidden;rotatable=0;points=[[0,0.5],[1,0.5]];portConstraint=eastwest;whiteSpace=wrap;html=1;" vertex="1" parent="LMex-cNDRAr9as4ZC1uz-41">
          <mxGeometry y="26" width="130" height="34" as="geometry" />
        </mxCell>
        <mxCell id="LMex-cNDRAr9as4ZC1uz-43" value="" style="line;strokeWidth=1;fillColor=none;align=left;verticalAlign=middle;spacingTop=-1;spacingLeft=3;spacingRight=3;rotatable=0;labelPosition=right;points=[];portConstraint=eastwest;strokeColor=inherit;" vertex="1" parent="LMex-cNDRAr9as4ZC1uz-41">
          <mxGeometry y="60" width="130" height="8" as="geometry" />
        </mxCell>
        <mxCell id="LMex-cNDRAr9as4ZC1uz-44" value="+ criar():&#xa;+ deletar(): " style="text;align=left;verticalAlign=top;spacingLeft=4;spacingRight=4;overflow=hidden;rotatable=0;points=[[0,0.5],[1,0.5]];portConstraint=eastwest;" vertex="1" parent="LMex-cNDRAr9as4ZC1uz-41">
          <mxGeometry y="68" width="130" height="42" as="geometry" />
        </mxCell>
        <mxCell id="LMex-cNDRAr9as4ZC1uz-45" style="edgeStyle=orthogonalEdgeStyle;rounded=0;orthogonalLoop=1;jettySize=auto;html=1;exitX=0.5;exitY=1;exitDx=0;exitDy=0;entryX=0.5;entryY=0;entryDx=0;entryDy=0;" edge="1" parent="1" source="LMex-cNDRAr9as4ZC1uz-46" target="LMex-cNDRAr9as4ZC1uz-35">
          <mxGeometry relative="1" as="geometry" />
        </mxCell>
        <mxCell id="LMex-cNDRAr9as4ZC1uz-46" value="Usuario" style="swimlane;fontStyle=0;align=center;verticalAlign=top;childLayout=stackLayout;horizontal=1;startSize=26;horizontalStack=0;resizeParent=1;resizeLast=0;collapsible=1;marginBottom=0;rounded=0;shadow=0;strokeWidth=1;" vertex="1" parent="1">
          <mxGeometry x="190" y="260" width="190" height="330.5" as="geometry">
            <mxRectangle x="340" y="380" width="170" height="26" as="alternateBounds" />
          </mxGeometry>
        </mxCell>
        <mxCell id="LMex-cNDRAr9as4ZC1uz-47" value="+ nome: string&#xa;+ foto:string&#xa;+ email: string&#xa;+ senha: string&#xa;+ telefone: string&#xa;+ sexo: string&#xa;+ endereco: string&#xa;+ cep: string&#xa;+ nascimento: date&#xa;+ pontuacao: int&#xa;+ Numero_Endereco: string &#xa;+ Complemento_endenco: string" style="text;align=left;verticalAlign=top;spacingLeft=4;spacingRight=4;overflow=hidden;rotatable=0;points=[[0,0.5],[1,0.5]];portConstraint=eastwest;" vertex="1" parent="LMex-cNDRAr9as4ZC1uz-46">
          <mxGeometry y="26" width="190" height="194" as="geometry" />
        </mxCell>
        <mxCell id="LMex-cNDRAr9as4ZC1uz-48" value="" style="line;html=1;strokeWidth=1;align=left;verticalAlign=middle;spacingTop=-1;spacingLeft=3;spacingRight=3;rotatable=0;labelPosition=right;points=[];portConstraint=eastwest;" vertex="1" parent="LMex-cNDRAr9as4ZC1uz-46">
          <mxGeometry y="220" width="190" height="10" as="geometry" />
        </mxCell>
        <mxCell id="LMex-cNDRAr9as4ZC1uz-49" value="+ criar(): &#xa;+ gravar():&#xa;+ deletar(): &#xa;+ validarSenha():&#xa;+ atualizarPontos():&#xa;+ editar():" style="text;align=left;verticalAlign=top;spacingLeft=4;spacingRight=4;overflow=hidden;rotatable=0;points=[[0,0.5],[1,0.5]];portConstraint=eastwest;" vertex="1" parent="LMex-cNDRAr9as4ZC1uz-46">
          <mxGeometry y="230" width="190" height="92" as="geometry" />
        </mxCell>
        <mxCell id="LMex-cNDRAr9as4ZC1uz-50" style="edgeStyle=orthogonalEdgeStyle;rounded=0;orthogonalLoop=1;jettySize=auto;html=1;exitX=0;exitY=0.5;exitDx=0;exitDy=0;entryX=1;entryY=0.5;entryDx=0;entryDy=0;" edge="1" parent="1" source="LMex-cNDRAr9as4ZC1uz-42" target="LMex-cNDRAr9as4ZC1uz-47">
          <mxGeometry relative="1" as="geometry" />
        </mxCell>
      </root>
    </mxGraphModel>
  </diagram>
</mxfile>
